<?xml version="1.0" encoding="iso-8859-1"?>
<!-- Uploaded to: SVG Repo, www.svgrepo.com, Generator: SVG Repo Mixer Tools -->
<svg height="800px" width="800px" version="1.1" id="Layer_1" xmlns="http://www.w3.org/2000/svg" xmlns:xlink="http://www.w3.org/1999/xlink" 
	 viewBox="0 0 503.467 503.467" xml:space="preserve">
<g transform="translate(9 1)">
	<g>
		<path style="fill:#F2EDDA;" d="M423.145,498.2H303.678V276.333h42.667h34.133h42.667V498.2z M380.478,276.333h-34.133h-42.667V191
			h102.4h17.067v85.333H380.478z M303.678,191h102.4V54.467h-102.4V191z M303.678,54.467h102.4v-51.2h-102.4V54.467z"/>
		<path style="fill:#F2EDDA;" d="M303.678,276.333V498.2H184.212V276.333h42.667h34.133H303.678z M261.012,276.333h-34.133h-42.667
			V191h119.467v85.333H261.012z"/>
		<path style="fill:#F2EDDA;" d="M184.212,276.333V498.2H64.745V276.333h42.667h34.133H184.212z M107.412,276.333H64.745V191h17.067
			h102.4v85.333h-42.667H107.412z M81.812,191h102.4V54.467h-102.4V191z M81.812,54.467h102.4v-51.2h-102.4V54.467z"/>
	</g>
	<path style="fill:#FFD0A1;" d="M243.945,310.467c14.507,0,25.6,11.093,25.6,25.6s-11.093,25.6-25.6,25.6s-25.6-11.093-25.6-25.6
		S229.438,310.467,243.945,310.467z M261.012,447v51.2h-34.133V447c0-17.067,8.533-25.6,17.067-34.133
		C252.478,421.4,261.012,429.933,261.012,447z M380.478,447v51.2h-34.133V447c0-17.067,8.533-25.6,17.067-34.133
		C371.945,421.4,380.478,429.933,380.478,447z M141.545,447v51.2h-34.133V447c0-17.067,8.533-25.6,17.067-34.133
		C133.012,421.4,141.545,429.933,141.545,447z"/>
</g>
<path style="fill:#51565F;" d="M500.412,503.467H5.478c-2.56,0-4.267-1.707-4.267-4.267c0-2.56,1.707-4.267,4.267-4.267h64V311.467
	c0-2.56,1.707-4.267,4.267-4.267s4.267,1.707,4.267,4.267v183.467h34.133V448c0-18.773,9.387-28.16,17.92-37.547
	c1.707-1.707,4.267-1.707,5.973,0c8.533,8.533,17.92,17.92,17.92,37.547v46.933h34.133V311.467c0-2.56,1.707-4.267,4.267-4.267
	c2.56,0,4.267,1.707,4.267,4.267v183.467h34.133V448c0-18.773,9.387-28.16,17.92-37.547c1.707-1.707,4.267-1.707,5.973,0
	c8.533,8.533,17.92,17.92,17.92,37.547v46.933h34.133V311.467c0-2.56,1.707-4.267,4.267-4.267s4.267,1.707,4.267,4.267v183.467
	h34.133V448c0-18.773,9.387-28.16,17.92-37.547c1.707-1.707,4.267-1.707,5.973,0c8.533,8.533,17.92,17.92,17.92,37.547v46.933
	h34.133V311.467c0-2.56,1.707-4.267,4.267-4.267s4.267,1.707,4.267,4.267v183.467h64c2.56,0,4.267,1.707,4.267,4.267
	C502.119,501.76,502.972,503.467,500.412,503.467z M359.612,494.933h25.6V448c0-13.653-5.973-20.48-12.8-28.16
	c-6.827,7.68-12.8,14.507-12.8,28.16V494.933z M240.145,494.933h25.6V448c0-13.653-5.973-20.48-12.8-28.16
	c-6.827,7.68-12.8,14.507-12.8,28.16V494.933z M120.678,494.933h25.6V448c0-13.653-5.973-20.48-12.8-28.16
	c-6.827,7.68-12.8,14.507-12.8,28.16V494.933z M389.478,366.933c-2.56,0-4.267-1.707-4.267-4.267v-51.2
	c0-2.56,1.707-4.267,4.267-4.267s4.267,1.707,4.267,4.267v51.2C393.745,365.227,392.038,366.933,389.478,366.933z M355.345,366.933
	c-2.56,0-4.267-1.707-4.267-4.267v-51.2c0-2.56,1.707-4.267,4.267-4.267s4.267,1.707,4.267,4.267v51.2
	C359.612,365.227,357.905,366.933,355.345,366.933z M252.945,366.933c-16.213,0-29.867-13.653-29.867-29.867
	s13.653-29.867,29.867-29.867s29.867,13.653,29.867,29.867S269.158,366.933,252.945,366.933z M252.945,315.733
	c-11.947,0-21.333,9.387-21.333,21.333s9.387,21.333,21.333,21.333c11.947,0,21.333-9.387,21.333-21.333
	S264.892,315.733,252.945,315.733z M150.545,366.933c-2.56,0-4.267-1.707-4.267-4.267v-51.2c0-2.56,1.707-4.267,4.267-4.267
	s4.267,1.707,4.267,4.267v51.2C154.812,365.227,153.105,366.933,150.545,366.933z M116.412,366.933c-2.56,0-4.267-1.707-4.267-4.267
	v-51.2c0-2.56,1.707-4.267,4.267-4.267c2.56,0,4.267,1.707,4.267,4.267v51.2C120.678,365.227,118.972,366.933,116.412,366.933z
	 M449.212,281.6H56.678c-2.56,0-4.267-1.707-4.267-4.267s1.707-4.267,4.267-4.267h12.8V192c0-2.56,1.707-4.267,4.267-4.267h358.4
	c2.56,0,4.267,1.707,4.267,4.267v81.067h12.8c2.56,0,4.267,1.707,4.267,4.267S451.772,281.6,449.212,281.6z M393.745,273.067h34.133
	v-76.8H316.945v76.8h34.133v-46.933c0-2.56,1.707-4.267,4.267-4.267s4.267,1.707,4.267,4.267v46.933h25.6v-46.933
	c0-2.56,1.707-4.267,4.267-4.267s4.267,1.707,4.267,4.267V273.067z M274.278,273.067h34.133v-76.8H197.478v76.8h34.133v-46.933
	c0-2.56,1.707-4.267,4.267-4.267s4.267,1.707,4.267,4.267v46.933h25.6v-46.933c0-2.56,1.707-4.267,4.267-4.267
	s4.267,1.707,4.267,4.267V273.067z M154.812,273.067h34.133v-76.8H78.012v76.8h34.133v-46.933c0-2.56,1.707-4.267,4.267-4.267
	c2.56,0,4.267,1.707,4.267,4.267v46.933h25.6v-46.933c0-2.56,1.707-4.267,4.267-4.267s4.267,1.707,4.267,4.267V273.067z
	 M415.078,162.133c-2.56,0-4.267-1.707-4.267-4.267V59.733h-93.867v98.133c0,2.56-1.707,4.267-4.267,4.267s-4.267-1.707-4.267-4.267
	V59.733h-12.8c-2.56,0-4.267-1.707-4.267-4.267c0-2.56,1.707-4.267,4.267-4.267h136.533c2.56,0,4.267,1.707,4.267,4.267
	c0,2.56-1.707,4.267-4.267,4.267h-12.8v98.133C419.345,160.427,417.638,162.133,415.078,162.133z M363.878,162.133
	c-2.56,0-4.267-1.707-4.267-4.267V89.6c0-2.56,1.707-4.267,4.267-4.267s4.267,1.707,4.267,4.267v68.267
	C368.145,160.427,366.438,162.133,363.878,162.133z M193.212,162.133c-2.56,0-4.267-1.707-4.267-4.267V59.733H95.078v98.133
	c0,2.56-1.707,4.267-4.267,4.267s-4.267-1.707-4.267-4.267V59.733h-12.8c-2.56,0-4.267-1.707-4.267-4.267
	c0-2.56,1.707-4.267,4.267-4.267h136.533c2.56,0,4.267,1.707,4.267,4.267c0,2.56-1.707,4.267-4.267,4.267h-12.8v98.133
	C197.478,160.427,195.772,162.133,193.212,162.133z M142.012,162.133c-2.56,0-4.267-1.707-4.267-4.267V89.6
	c0-2.56,1.707-4.267,4.267-4.267c2.56,0,4.267,1.707,4.267,4.267v68.267C146.278,160.427,144.572,162.133,142.012,162.133z
	 M415.078,25.6c-2.56,0-4.267-1.707-4.267-4.267v-12.8h-93.867v12.8c0,2.56-1.707,4.267-4.267,4.267s-4.267-1.707-4.267-4.267v-12.8
	h-12.8c-2.56,0-4.267-1.707-4.267-4.267S293.052,0,295.612,0h136.533c2.56,0,4.267,1.707,4.267,4.267s-1.707,4.267-4.267,4.267
	h-12.8v12.8C419.345,23.893,417.638,25.6,415.078,25.6z M193.212,25.6c-2.56,0-4.267-1.707-4.267-4.267v-12.8H95.078v12.8
	c0,2.56-1.707,4.267-4.267,4.267s-4.267-1.707-4.267-4.267v-12.8h-12.8c-2.56,0-4.267-1.707-4.267-4.267S71.185,0,73.745,0h136.533
	c2.56,0,4.267,1.707,4.267,4.267s-1.707,4.267-4.267,4.267h-12.8v12.8C197.478,23.893,195.772,25.6,193.212,25.6z"/>
</svg>